<?xml version="1.0" encoding="UTF-8" standalone="no"?><!DOCTYPE svg PUBLIC "-//W3C//DTD SVG 1.1//EN" "http://www.w3.org/Graphics/SVG/1.1/DTD/svg11.dtd"><svg width="100%" height="100%" viewBox="0 0 2481 2392" version="1.1" xmlns="http://www.w3.org/2000/svg" xmlns:xlink="http://www.w3.org/1999/xlink" xml:space="preserve" style="fill-rule:evenodd;clip-rule:evenodd;stroke-linejoin:round;stroke-miterlimit:1.41421;"><rect id="Zirkel" x="0.2" y="0.03" width="2480.32" height="2391.18" style="fill:none;"/><g id="Zirkel1"><path d="M2075.45,2100.01c17.455,4.511 26.675,27.336 20.575,50.941c-6.1,23.604 -25.224,39.106 -42.679,34.595c-17.455,-4.511 -26.674,-27.337 -20.575,-50.941c6.1,-23.604 25.224,-39.106 42.679,-34.595Zm340.264,-1858.96c1.179,-16.436 -12.94,-58.73 -32.69,-70.596c-11.209,-6.734 -26.823,-13.911 -37.372,-9.211c-9.709,4.325 -20.53,24.584 -23.267,29.388c-13.639,23.94 -16.68,65.092 -22.5,112.523c-25.918,211.232 -56.931,597.644 -91.621,811.523c-47.146,290.677 -115.55,726.985 -131.827,873.536c-1.275,11.478 31.765,17.065 34.163,5.767c30.846,-145.316 100.057,-585.508 150.909,-877.663c29.896,-171.758 69.712,-390.249 103.345,-573.031c23.518,-127.81 46.286,-238.44 50.86,-302.236Z"/><path d="M470.357,1868.27c-3.618,-66.449 3.457,-132.433 14.261,-178.924c15.984,-68.776 59.547,-242.483 128.109,-320.414c-36.046,-32.873 -65.207,-63.36 -76.178,-112.174c-6.347,-28.242 -3.597,-94.052 22.554,-160.22c25.281,-63.968 73.332,-128.245 104.682,-160.751c42.43,-43.996 114.441,-81.07 161.44,-97.989c19.357,-6.968 39.524,-14.511 60.105,-21.553c12.686,-37.896 27.333,-75.363 43.387,-111.981l0.357,-0.813l-0.637,0.105l-0.634,0.102c-1.266,0.203 -2.516,0.391 -3.748,0.563c-74.701,10.458 -147.895,15.258 -213.32,15.332l-1.453,0.001c-58.052,0.004 -109.929,-3.721 -151.233,-10.52c-199.709,-32.873 -347.924,-138.071 -351.878,-260.401c-4.141,-128.149 127.076,-271.175 404.842,-270.991l1.918,0.004c48.647,0.147 101.769,4.677 159.424,14.432c57.517,9.733 127.972,23.637 196.138,36.683c86.143,16.487 192.856,39.268 352.697,48.242c24.346,1.367 47.556,2.051 69.762,2.06l1.548,0c109.249,-0.113 194.173,-16.659 270.709,-48.931c74.104,-31.246 131.327,-77.799 149.977,-96.054c34.3,-33.575 66.633,-69.223 99.776,-78.76c1.42,-0.409 2.695,-0.622 3.83,-0.651l0.225,-0.004l0.131,0.001c21.116,0.19 -9.247,67.357 -70.339,126.353c-16.872,16.293 -104.688,88.709 -165.112,113.074c-55.443,22.357 -140.812,40.915 -281.807,41.007l-1.962,0c-25.55,-0.015 -52.918,-0.633 -82.254,-1.942c-253.937,-11.332 -393.067,-67.112 -531.563,-91.334c-72.784,-12.729 -135.44,-18.387 -189.519,-18.469l-1.328,-0.001c-171.982,0.03 -256.89,56.63 -304.998,121.353c-116.612,156.888 64.773,312.501 269.94,326.435c32.896,2.234 87.752,6.024 155.71,6.043l2.197,-0.001c24.948,-0.023 51.633,-0.558 79.625,-1.865c48.168,-2.249 100.233,-6.911 154.789,-18.545l0.626,-1.304c11.987,-24.919 47.812,-100.504 84.575,-142.196c49.677,-56.337 104.058,-77.897 131.754,-83.654c8.102,-1.684 16.146,-2.477 23.991,-2.474l0.453,0.001c69.179,0.293 122.623,62.436 63.115,120.73c-58.136,56.95 -165.653,102.24 -202.247,117.052c-9.954,4.029 -37.535,14.827 -67.604,24.278l-0.801,0.251c-18.516,35.403 -38.141,73.586 -49.027,111.384l1.4,-0.368c14.47,-3.786 28.981,-6.914 43.404,-9.034c13.192,-1.938 26.397,-2.752 39.468,-2.775l1.153,0c35.732,0.063 70.441,5.967 101.165,10.867c48.122,7.676 88.926,22.688 121.661,41.047c34.847,19.543 60.551,42.619 76.205,55.778c18.766,15.775 39.775,54.075 51.509,102.144c17.338,71.023 16.72,164.645 -22.63,248.811c-29.449,62.986 -81.443,145.888 -128.064,195.531c-22.125,23.559 -41.49,48.814 -63.083,68.527c-30.836,28.15 -61.264,45.88 -61.264,45.88c0,0 49.968,26.7 51.771,90.329c0.833,29.388 -10.765,105.408 -27.258,189.716c-19.926,101.853 -45.793,215.28 -49.842,266.406c-5.112,64.543 30.133,78.232 40.852,80.259c1.541,0.291 3.17,0.434 4.87,0.439l0.32,-0.001c11.861,-0.09 27.159,-6.827 40.733,-16.976c17.058,-12.753 31.534,-30.473 36.621,-36.438c17.811,-20.886 29.45,-64.202 43.646,-97.587c15.429,-36.286 34.622,-104.401 55.686,-175.81c24.369,-82.614 51.241,-169.637 77.683,-216.881c28.134,-50.268 45.042,-81.724 80.513,-99.803c13.696,-6.98 30.013,-12.957 51.225,-14.295c13.38,-0.844 31.262,4.229 45.824,9.291c32.187,11.189 58.615,27.398 58.615,27.398l0.069,-0.09c1.326,-1.742 21.552,-27.974 36.565,-28.052l0.186,0c0.87,0.008 1.722,0.105 2.551,0.301c4.244,1.004 12.116,13.542 13.487,30.732c1.729,21.675 -3.657,49.21 -3.645,53.163c0.122,43.057 -8.518,138.75 -22.015,232.125c-15.191,105.101 -34.983,208.815 -25.634,260.948c4.298,23.964 12.755,73.595 42.821,89.494c12.14,6.419 24.024,9.303 35.825,9.302l0.466,-0.001c7.918,-0.052 15.8,-1.399 23.698,-3.844c12.288,-3.804 24.268,-6.32 33.532,-6.294l0.432,0.003c9.035,0.105 15.402,2.692 16.807,8.957c3.501,15.62 -7.793,22.456 -34.302,32.474c-9.17,3.466 -21.473,5.145 -34.235,5.19l-0.751,0.001c-19.043,-0.028 -38.991,-3.676 -50.996,-10.44c-19.093,-10.757 -46.189,-35.996 -56.947,-63.945c-9.292,-24.142 -18.981,-52.631 -21.258,-59.375l-0.499,-1.483c0,0 -28.175,49.509 -71.808,89.97c-30.279,28.078 -69.731,51.257 -105.207,52.753c-2.095,0.088 -4.444,0.155 -6.993,0.166l-0.549,0.002c-20.807,0.024 -54.462,-3.738 -73.585,-29.262c-25.918,-34.593 -32.744,-96.856 -33.145,-100.713l-0.019,-0.189c0,0 -70.008,98.061 -119.245,116.164c-8.267,3.039 -16.134,4.398 -23.57,4.455l-0.602,0.001c-43.67,-0.082 -72.308,-45.05 -79.115,-57.861c-12.492,-23.511 -20.827,-60.504 -23.612,-97.224c-2.91,-38.374 9.198,-124.407 20.675,-205.744c10.438,-73.981 20.354,-144.078 17.971,-170.897c-2.05,-23.064 -5.492,-47.353 -21.998,-65.681c-19.143,-21.256 -50.87,-34.975 -52.839,-35.814l-0.095,-0.04c0,0 -41.673,17.89 -75.027,26.97c-13.711,3.733 -21.734,4.374 -28.833,4.82c-0.64,0.04 -1.349,0.067 -2.109,0.075l-0.329,0.002c-6.202,0.015 -15.598,-1.264 -19.94,-6.942c-7.887,-10.312 14.813,-25.731 35.933,-37.729c43.763,-24.862 118.229,-50.492 179.034,-91.221c29.403,-19.695 61.09,-46.701 86.212,-78.967c24.223,-31.114 42.09,-67.355 59.259,-94.155c43.715,-68.239 65.328,-148.878 60.658,-220.031c-4.725,-71.999 -36.06,-137.484 -46.825,-158.214c-17.477,-33.654 -83.354,-107.681 -184.184,-124.272c-8.738,-1.438 -17.886,-2.124 -27.345,-2.172l-1.014,-0.002c-33.521,-0.009 -70.88,7.907 -107.699,18.717l-0.719,0.212c-8.092,19.558 -16.933,41.282 -23.693,65.135c-21.302,75.172 -49.844,169.71 -70.104,272.583c-4.93,25.035 -10.389,50.641 -16.194,76.624l1.213,-0.238c12.547,-2.434 25.449,-4.244 38.141,-5.011c4.734,-0.286 9.439,-0.423 14.084,-0.42l0.929,0.003c34.631,0.161 65.887,8.061 81.559,19.552c27.054,19.836 49.526,50.163 49.319,69.301c-0.29,26.846 -32.4,49.261 -64.003,65.17c-18.724,9.425 -58.014,16.712 -99.903,16.794l-1.102,0c-4.782,-0.005 -9.596,-0.104 -14.415,-0.305c-14.748,-0.616 -29.527,-2.377 -43.645,-4.697c-16.137,66.772 -32.134,133.458 -45.14,197.029c-23.193,113.368 -48.399,220.059 -70.025,304.476c-2.705,10.558 -7.451,27.253 -14.135,47.481c0.612,0.441 1.252,0.9 1.924,1.376c22.763,16.167 46.82,33.848 57.192,46.807c8.982,11.222 35.04,32.578 46.497,57.493c10.109,21.983 9.525,47.085 2.482,65.507c-11.331,29.633 -31.373,45.941 -61.178,49.282c-1.989,0.224 -4.842,0.358 -8.275,0.38l-0.744,0.002c-12.3,0.019 -31.461,-1.366 -45.348,-5.198c-16.645,-4.592 -45.268,-26.135 -57.494,-37.282c-3.602,-3.285 -7.27,-6.764 -10.843,-10.315c-29.888,51.725 -62.781,98.253 -89.342,125.307c-55.716,56.749 -134.943,90.745 -182.584,90.928l-0.57,0c-0.948,-0.001 -1.883,-0.017 -2.805,-0.046c-31.953,-1.003 -75.466,-8.273 -114.102,-32.432c-38.28,-23.936 -71.751,-64.622 -89.027,-95.536c-18.505,-33.115 -24.077,-88.494 -18.984,-138.304c4.861,-47.533 19.54,-89.587 37.596,-119.044c23.403,-38.182 64.251,-80.74 94.972,-88.243c10.774,-2.632 21.345,-3.832 31.546,-3.816l0.556,0.002c0.184,0.001 0.368,0.002 0.553,0.004l0.553,0.007l0.549,0.009l0.551,0.012l0.003,0l0.546,0.014l0.004,0l0.545,0.016l0.005,0l0.544,0.019c0.428,0.015 0.855,0.033 1.281,0.053l0.086,0.003l0.089,0.005l0.19,0.009l0.541,0.027c0.244,0.013 0.487,0.027 0.73,0.042l0.087,0.005l0.09,0.005l0.187,0.011l0.539,0.035c0.242,0.016 0.484,0.033 0.725,0.05l0.088,0.006l0.09,0.007l0.185,0.014l0.538,0.041c0.241,0.019 0.481,0.039 0.721,0.06l0.088,0.007l0.09,0.008l0.183,0.015l0.536,0.049c0.239,0.022 0.478,0.044 0.717,0.068l0.088,0.008l0.09,0.01l0.181,0.017l0.534,0.055c0.238,0.025 0.476,0.051 0.713,0.077l0.089,0.01l0.089,0.01l0.179,0.02l0.532,0.062c0.237,0.028 0.474,0.056 0.71,0.086l0.088,0.01l0.089,0.012l0.178,0.022l0.53,0.068c0.235,0.031 0.47,0.062 0.705,0.095l0.088,0.012l0.088,0.012c0.236,0.032 0.47,0.065 0.704,0.099l0.77,-2.725c0.278,-0.98 0.556,-1.962 0.837,-2.946l0.048,-0.172l0.13,-0.452c1.883,-6.615 3.819,-13.306 5.792,-20.043l0.015,-0.053l0.003,-0.008l0.125,-0.427l0.49,-1.672l0.118,-0.4l0.034,-0.116l0.153,-0.52l0.401,-1.364l0.151,-0.512l0.066,-0.224l0.18,-0.612l0.338,-1.145l0.158,-0.534l0.098,-0.332l0.208,-0.705l0.287,-0.969l0.152,-0.512l0.131,-0.441l0.236,-0.797l0.242,-0.816l0.139,-0.467l0.163,-0.55l0.265,-0.889l0.202,-0.679l0.12,-0.405l0.197,-0.66l0.292,-0.981l0.164,-0.55l0.1,-0.334l0.231,-0.773l0.32,-1.07l0.128,-0.428l0.076,-0.255l0.267,-0.89l0.345,-1.155l0.094,-0.311l0.051,-0.172l0.305,-1.015l0.37,-1.231l0.059,-0.197l0.026,-0.085l0.356,-1.186l0.38,-1.262l0.159,-0.527l0.628,-2.084l0.007,-0.023l0.029,-0.096l0.324,-1.072l0.405,-1.337l0.026,-0.088c0.466,-1.54 0.933,-3.08 1.4,-4.619l0.106,-0.349l0.066,-0.218c0.452,-1.487 0.904,-2.974 1.357,-4.46l0.113,-0.372l0.098,-0.323c0.418,-1.37 0.836,-2.739 1.254,-4.107l0.186,-0.611l0.786,-2.568l0.51,-1.664l0.121,-0.393l0.123,-0.405l0.956,-3.113l0.462,-1.505l0.061,-0.197c0.534,-1.736 1.067,-3.47 1.6,-5.199c-23.541,-21.964 -44.032,-66.436 -56.885,-103.499c-6.801,-19.609 -10.798,-37.976 -11.453,-49.14c-1.226,-20.913 0.444,-30.158 5.776,-51.501c4.738,-18.962 13.076,-40.096 28.643,-52.636c9.173,-7.39 22.506,-10.421 36.468,-10.451l0.456,0c24.762,0.062 51.382,9.499 60.233,20.761c8.985,11.432 28.075,58.477 21.956,105.575c-4.226,32.524 -22.979,83.672 -40.077,127.997c37.615,25.619 92.286,56.439 149.948,89.267Zm-188.758,22.495c0.215,0.097 0.429,0.194 0.643,0.291l0.073,0.033l0.116,0.053l0.233,0.107l0.245,0.113l0.118,0.054l0.067,0.032c0.212,0.098 0.424,0.198 0.635,0.297l0.007,0.003l0.036,0.017l0.475,0.226l0.117,0.056l0.077,0.037l0.114,0.055l0.216,0.104l0.253,0.123l0.119,0.058l0.062,0.03c0.208,0.102 0.416,0.204 0.623,0.306l0.014,0.007l0.068,0.035l0.422,0.21l0.121,0.061l0.083,0.042l0.116,0.058l0.196,0.1l0.254,0.13l0.126,0.063l0.06,0.031c0.202,0.104 0.403,0.208 0.604,0.313l0.024,0.012l0.103,0.054l0.366,0.192l0.12,0.063l0.095,0.05l0.121,0.064l0.172,0.092l0.247,0.132l0.141,0.075l0.061,0.034c0.188,0.101 0.375,0.202 0.562,0.304l0,0c11.725,6.396 21.795,14.492 29.638,23.565c14.948,17.293 25.747,61.098 20.54,97.966c-6.381,45.182 -32.609,83.004 -53.067,86.541c-1.983,0.343 -3.954,0.521 -5.906,0.539l-0.366,0.002c-29.126,-0.033 -54.124,-35.786 -58.134,-92.591l-0.028,-0.42c-0.991,-15.988 4.604,-47.996 13.211,-83.337l0,-0.001c0.132,-0.54 0.264,-1.082 0.398,-1.624l0.014,-0.06l0.119,-0.482l0.264,-1.073l0.039,-0.157l0.042,-0.169l0.129,-0.519l0.194,-0.781l0.078,-0.313l0.068,-0.274l0.112,-0.445l0.149,-0.597l0.121,-0.478l0.093,-0.372l0.088,-0.346l0.11,-0.438l0.168,-0.664l0.114,-0.449l0.06,-0.236l0.073,-0.287l0.235,-0.917l0.117,-0.46l0.031,-0.12l0.036,-0.143l0.385,-1.496l-3.235,-0.402l-0.076,-0.003l-0.383,-0.015l-0.153,-0.005l-0.312,-0.01l-0.176,-0.004l-0.285,-0.006l-0.185,-0.003l-0.272,-0.003l-0.187,-0.001l-0.268,-0.001l-0.183,0l-0.272,0.002l-0.171,0.001l-0.296,0.005l-0.142,0.002l-0.431,0.01c-3.588,0.205 -7.366,0.64 -9.3,0.895c-20.043,2.638 -34.074,12.278 -37.638,14.981c-30.678,23.268 -71.267,90.056 -77.388,157.477c-5.678,62.526 20.628,133.817 35.822,161.133c28.495,51.231 92.746,70.374 132.185,72.784c2.156,0.132 4.359,0.199 6.604,0.203l0.613,-0.001c49.964,-0.165 120.613,-31.394 168.573,-80.346l0.368,-0.378c26.214,-26.947 56.949,-78.949 84.77,-134.119c-14.034,-27.065 -29.521,-75.395 -40.687,-104.831c-11.169,-29.446 -18.306,-62.215 -22.33,-95.795c-22.617,-13.98 -45.264,-27.683 -66.994,-40.629c-37.008,-22.047 -72.031,-36.635 -98.954,-51.335l-0.634,-0.347c-6.721,17.356 -12.209,31.924 -14.999,41.399l-1.27,4.316l-0.473,1.61l-0.807,2.747l-0.669,2.282l-0.617,2.105l-0.82,2.812l-0.451,1.545l-5.307,18.444Zm1235.53,219.287c-3.609,6.526 -20.736,28.697 -40.396,44.285c-25.945,20.572 -57.118,34.642 -75.533,35.27c-14.701,0.502 -35.377,-0.104 -45.906,-9.799c-11.324,-10.427 -20.613,-31.982 -24.572,-48.193c-5.539,-22.685 -8.096,-59.365 -7.85,-90.379c0.189,-23.783 2.664,-41.627 2.855,-63.033c0.26,-29.283 24.903,-123.275 30.046,-139.521c6.616,-20.901 19.06,-77.744 42.827,-130.472c17.604,-39.053 43.982,-76.767 65.406,-91.146c22.527,-15.12 50.007,-18.36 74.462,-19.627c27.878,-1.444 59.396,24.412 66.301,72.873c5.869,41.196 -0.905,97.225 -9.497,144.717c-1.948,10.766 -13.198,90.746 -18.796,130.933c-2.838,20.373 -11.56,57.627 -25.046,92.642c-12.492,32.438 -29.724,63.174 -34.301,71.45Zm-889.535,-101.96c-7.686,20.502 -16.834,42.672 -27.373,64.729c-2.77,5.799 -5.623,11.608 -8.546,17.409l0.382,0.851c5.88,13.052 13.317,30.136 22.003,38.822c4.484,4.485 26.341,23.571 45.924,26.184c2.389,0.319 4.769,0.473 7.125,0.478l0.295,-0.001c22.666,-0.08 43.152,-14.04 48.93,-29.615c8.114,-21.867 -26.152,-65.949 -36.38,-75.963c-11.099,-10.867 -28.985,-25.503 -51.294,-42.102l-1.066,-0.792Zm-356.483,-77.901l-0.022,0.092l-0.171,0.723l-0.387,1.647l-0.222,0.948l-0.364,1.555l-0.232,0.998l-0.388,1.67l-0.213,0.921l-0.537,2.329l-0.071,0.309l-0.004,0.017l-0.479,2.099l-0.087,0.38l-0.465,2.052l-0.082,0.368l-0.447,1.991l-0.031,0.137l-0.449,2.02l-0.127,0.577l-0.103,0.467l-0.185,0.845l-0.091,0.413l-0.244,1.124l-0.022,0.101l-0.256,1.19l-0.077,0.362l-0.173,0.81l-0.087,0.412l-0.157,0.748l-0.082,0.391l-0.169,0.814l-0.056,0.273l-0.212,1.037l-0.046,0.229l-0.153,0.765l-0.065,0.331l-0.123,0.627l-0.064,0.331l-0.116,0.609l-0.059,0.316l-0.025,0.132l-0.119,0.65c0,0 -0.076,0.428 -0.076,0.428c-1.451,8.234 -5.348,21.726 -5.676,35.11c-0.353,14.331 0.839,30.005 2.779,37.503c3.842,14.851 9.703,26.69 14.876,29.215c0.346,0.169 0.706,0.253 1.078,0.259l0.101,0c3.943,-0.086 9.231,-8.796 14.802,-18.225c5.839,-9.883 9.42,-26.913 10.55,-31.374c1.213,-4.788 3.684,-29.473 -2.98,-53.378l-0.056,-0.192l-0.109,-0.355c-2.383,-7.623 -11.822,-29.432 -25.944,-39.049l-0.34,-0.228l-1.543,6.476Zm270.332,18.588c3.646,12.738 7.007,32.98 13.573,51.45c4.604,12.951 9.751,27.029 14.096,37.676l0.811,-1.818c8.355,-18.765 15.975,-36.788 22.547,-53.145c-2.666,-1.848 -5.366,-3.707 -8.098,-5.576c-13.626,-9.321 -28.035,-18.902 -42.914,-28.584l-0.015,-0.003Zm-7.884,-44.045c24.782,14.765 51.941,31.635 71.981,44.085l0.456,-1.267c4.667,-13.019 8.056,-23.677 9.863,-31.073c20.7,-84.753 41.756,-190.369 66.258,-303.96c13.925,-64.552 29.778,-130.816 45.263,-196.953c-7.92,-1.887 -15.225,-3.746 -21.711,-5.405c-13.577,-3.473 -27.757,-7.23 -41.532,-12.177l0.007,-0.008l-0.023,0.003l0.016,0.005l0,0.001c-72.212,81.636 -105.947,214.821 -124.836,293.597c-5.285,22.041 -11.141,93.161 -9.811,156.094c0.416,19.726 1.896,38.634 3.822,54.992c0.168,0.685 0.253,1.344 0.248,1.972l-0.001,0.094Zm-261.923,23.24l-0.049,0.206l0.145,-0.609l-0.096,0.403Zm0.534,-2.24l-0.082,0.341l0.135,-0.562l-0.053,0.221Zm-33.143,-11.488l0,0l0.038,-0.146l-0.038,0.146Zm-0.558,-0.209l0.147,0.015l-0.025,-0.003l-0.122,-0.012Zm-0.473,-0.044l0.174,0.015l-0.048,-0.004l-0.126,-0.011Zm-0.452,-0.039l0.184,0.015l-0.072,-0.006l-0.112,-0.009Zm-0.443,-0.033l0.187,0.013l-0.093,-0.007l-0.094,-0.006Zm-0.437,-0.03l0.189,0.013l-0.116,-0.008l-0.073,-0.005Zm-0.432,-0.025l0.189,0.011l-0.137,-0.008l-0.052,-0.003Zm-0.428,-0.021l0.19,0.009l-0.159,-0.008l-0.031,-0.001Zm45.793,-23.08l0.653,-2.301l-0.006,0.021l-0.647,2.28c0,0 0,0 0,0Zm1.297,-4.559l-0.428,1.501l0.44,-1.543l-0.012,0.042Zm0.652,-2.276l-0.39,1.361l0.409,-1.427l-0.019,0.066Zm0.653,-2.273l-0.383,1.332l0.41,-1.426l-0.027,0.094Zm0.654,-2.269l-0.391,1.359l0.429,-1.488l-0.038,0.129Zm0.655,-2.265l-0.413,1.43l0.464,-1.603l-0.051,0.173Zm0.656,-2.259l-0.448,1.546l0.515,-1.779l-0.067,0.233Zm0.655,-2.252l-0.497,1.709l0.557,-1.915l-0.06,0.206Zm8.879,-315.368c-10.814,0.031 -24.103,22.154 -29.387,33.548c-5.707,12.305 -13.252,43.466 -11.404,70.34c2.788,40.533 18.549,78.842 27.453,87.861c1.482,1.501 3.088,3.037 4.812,4.608l3.193,-10.249c15.79,-50.674 28.751,-92.438 31.179,-108.017c4.908,-31.486 -7.651,-64.382 -20.472,-75.919c-1.635,-1.472 -3.394,-2.142 -5.225,-2.171l-0.149,-0.001Zm555.803,-271.294c-14.623,0.005 -27.726,1.008 -34.53,2.3c-4.669,0.886 -10.176,2.023 -16.211,3.454c-6.6,28.719 -13.536,57.808 -20.57,87.011c7.996,1.559 16.058,2.885 24,3.882c8.392,1.053 16.549,1.501 24.23,1.5l0.719,-0.002c22.713,-0.086 41.157,-4.086 48.994,-7.898c26.777,-13.02 55.249,-32.165 55.355,-51.989c0.059,-10.831 -7.923,-23.511 -25.599,-30.828c-13.274,-5.494 -35.733,-7.386 -55.575,-7.429l-0.813,-0.001Zm-99.519,21.969c-4.766,2.193 -9.421,4.584 -13.855,7.189c-11.811,6.939 -25.706,22.552 -39.067,39.116c7.918,3.673 15.884,6.849 23.757,9.445c4.883,1.61 10.078,3.228 15.505,4.812l0.873,-3.797c4.07,-17.72 8.07,-35.397 11.956,-52.995l0.831,-3.77Zm-95.561,20.412c26.018,-19.694 52.957,-33.371 78.168,-43.152c6.935,-2.69 15.114,-5.634 24.167,-8.554c6.577,-30.938 12.705,-61.556 18.137,-91.654c23.85,-132.164 61.656,-235.416 91.33,-319.293l0.067,-0.189c-15.861,5.552 -31.214,11.226 -45.667,16.57c-34.534,12.768 -86.324,47.638 -120.377,88.913c-22.427,27.183 -73.396,87.137 -93.384,148.808c-23.645,72.957 -13.294,148.057 5.139,170.455c11.414,13.868 25.85,27.027 41.805,38.562l-0.001,0.002c-0.002,0.012 0.065,0.044 0.001,-0.002l0.615,-0.466Zm532.848,-859.37c-4.088,0.006 -8.477,0.325 -13.152,0.984c-53.681,7.568 -131.576,90.469 -161.207,158.292c-1.933,4.423 -4.012,8.943 -6.21,13.551l1.205,-0.368c51.046,-15.634 103.735,-38.375 157.009,-71.647c77.375,-48.325 75.168,-100.181 23.411,-100.806l-0.661,-0.005l-0.395,-0.001Z"/></g></svg>